<?xml version="1.0" encoding="utf-8"?>
<!-- Generator: Adobe Illustrator 16.0.4, SVG Export Plug-In . SVG Version: 6.00 Build 0)  -->
<!DOCTYPE svg PUBLIC "-//W3C//DTD SVG 1.1//EN" "http://www.w3.org/Graphics/SVG/1.1/DTD/svg11.dtd">
<svg version="1.1" id="Layer_1" xmlns="http://www.w3.org/2000/svg" xmlns:xlink="http://www.w3.org/1999/xlink" x="0px" y="0px"
	 width="600px" height="248.418px" viewBox="0 0 600 248.418" enable-background="new 0 0 600 248.418" xml:space="preserve">
<g>
	<g>
		<g>
			<path fill="#EAE7D8" d="M387.594,90.543c-11.693,0-21.679,3.771-29.172,10.963c-5.279-7.398-14.408-10.752-28.808-10.752
				c-8.169,0-17.675,0.701-24.616,1.213c-3.504,0.258-6.532,0.48-7.761,0.48h-2.349l-0.867,2.182
				c-0.603,1.514-1.304,4.9-1.304,6.994c0,3.316,0,11.078,8.542,11.078c2.688,0,6.066-0.236,9.977-0.514
				c4.979-0.355,10.624-0.754,16.262-0.754c11.594,0,14.947,2.832,14.947,12.622v19.617c-6.999-0.998-12.789-1.561-19.392-1.561
				c-25.033,0-38.26,9.798-39.359,29.13c-0.051,0.877-0.075,5.434-0.075,6.35c0,18.188,12.599,29.49,32.877,29.49
				c13.967,0,23.069-2.408,37.329-16.051c7.887,10.52,20.127,16.051,35.674,16.051c23.459,0,31.816-6.926,31.816-13.41
				c0-3.588-0.504-7.672-4.231-10.721l-1.983-1.584l-2.121,1.379c-0.068,0.043-6.771,4.295-21.363,4.295
				c-13.928,0-22.482-7.09-25.208-22.363c-0.547-3.062-0.353-1.078-0.478-4.795h60.393l0.305-0.141c0,0,1.373-3.282,1.461-11.572
				c0-3.582-0.146-12.475-0.438-15.688C425.125,104.641,411.683,90.543,387.594,90.543z M387.17,110.797
				c4.241,0,16.489-0.004,18.318,23.173c0.07,0.869,0.124,7.264,0.163,8.199H366.15c0.1-0.947,0.223-7.418,0.375-8.41
				C368.144,123.21,373.049,110.797,387.17,110.797z M320.725,187.463c-7.809,0-11.896-2.926-12.687-9.156
				c-0.097-0.754-0.145-5.219-0.145-6.07c0-7.828,3.298-13.044,19.394-13.044c5.948,0,11.579,0.359,16.168,1.02
				c0.52,3.469,1.243,10.529,2.191,13.951C337.178,183.344,329.434,187.463,320.725,187.463z"/>
			<path fill="#EAE7D8" d="M476.094,139.921c-11.221-4.279-18.099-7.287-18.099-14.809c0-11.833,9.395-14.315,17.274-14.315
				c3.153,0,7.139,0.291,10.992,0.576c3.396,0.246,6.604,0.484,8.896,0.484c5.951,0,8.965-3.512,8.965-10.445
				c0-2.305-0.442-5.512-1.426-7.477l-0.959-1.91h-2.135c-1.437,0-4.284-0.227-7.586-0.49c-5.514-0.441-12.379-0.992-18.441-0.992
				c-25.354,0-40.492,13.08-40.492,34.991c0,20.84,16.72,27.733,30.152,33.27c11.482,4.736,18.521,8.008,18.521,15.4
				c0,8.52-5.743,12.838-17.066,12.838c-14.239,0-27.895-3.91-27.979-3.949l-2.301-1.002l-1.667,1.877
				c-2.296,2.586-3.416,5.969-3.416,10.342c0,4.77,8.468,12.773,35.786,12.773c19.985,0,41.341-8.805,41.341-33.512
				C506.456,151.496,489.62,145.079,476.094,139.921z"/>
			<path fill="#EAE7D8" d="M563.933,90.543c-10.757,0-20.082,4.111-28.282,12.508V52.953c0-6.636-7.176-6.636-11.923-6.636
				c-4.302,0-11.501,0-11.501,6.636v145.588c0,6.635,7.768,6.635,11.501,6.635c4.165,0,11.923,0,11.923-6.635v-68.509
				c10.212-14.179,16.622-19.235,24.264-19.235c9.213,0,13.888,6.025,13.888,17.913v69.832c0,6.635,7.909,6.635,11.714,6.635
				c4.094,0,11.715,0,11.715-6.635v-71.947C597.231,102.672,586.027,90.543,563.933,90.543z"/>
		</g>
	</g>
	<path fill="#EAE7D8" d="M148.243,91.533l-11.755,34.909l-39.016,8.551l-11.5-15.624c17.854-15.695,35.26-28.996,49.694-39.438
		L148.243,91.533z"/>
	<path fill="#FFFFFF" d="M95.494,80.543l31.378-7.855l8.793,7.367c-14.434,10.439-31.84,23.619-49.694,39.314l-6.961-9.156
		L95.494,80.543z"/>
	<g>
		<g>
			<polygon fill="#868D36" points="95.324,75.373 79.404,61.139 87.927,47.348 89.406,46.302 123.313,37.031 125.396,37.268 
				136.932,45.738 125.086,68.047 			"/>
			<polygon fill="#868D36" points="42.059,117.156 40.549,103.986 40.873,101.783 55.573,70.201 57.174,69.068 74.911,64.332 
				87.54,80.41 74.262,107.424 			"/>
			<path fill="#868D36" d="M142.154,46.244l18.599-4.974l2.395,0.275l15.006,9.692c-4.629,2.672-19.215,11.176-39.195,25.396
				l-5.632-6.299L142.154,46.244z"/>
			<path fill="#868D36" d="M32.175,143.265l9.238-20.359l32.391-6.782l7.16,8.134c-13.676,13.186-27.837,26.864-42.734,42.125
				l-6.469-20.27L32.175,143.265z"/>
			<path fill="#868D36" d="M160.573,37.198c0,0-11.475,3.906-18.558,5.617c0,0-1.953,0.977-5.128-1.955
				c-3.174-2.93-8.057-5.617-8.057-5.617s-2.2-4.151,11.232-3.173C153.492,33.047,164.481,35,160.573,37.198z"/>
			<path fill="#868D36" d="M123.457,32.804c0,0-2.443-3.91-16.119-0.98c0,0-5.859,1.955-1.953,6.84
				C105.385,38.663,125.989,34.85,123.457,32.804z"/>
			<path fill="#868D36" d="M100.988,33.658c0,0,0.733,0.733,1.1,3.205s1.374,2.564-2.656,3.938
				c-4.028,1.374-9.249,1.923-11.723,3.479c-2.472,1.559-3.387-3.479-1.374-5.403C88.352,36.954,99.433,32.742,100.988,33.658z"/>
			<path fill="#868D36" d="M77.667,55.988c-2.245,1.355-9.914-6.262-9.914-6.262c-1.136-3.143,9.415-7.226,11.704-7.998
				c2.29-0.772,2.525,2.149,2.96,3.877C82.851,47.334,79.91,54.629,77.667,55.988z"/>
			<path fill="#868D36" d="M72.785,61.863c-3.663,1.098-13.92,3.664-16.85,3.297s-3.296-4.396,1.832-8.426
				c5.129-4.028,7.326-5.494,10.989-2.196c3.663,3.296,5.495,3.663,5.495,3.663S76.448,60.764,72.785,61.863z"/>
			<path fill="#868D36" d="M51.538,66.625c0,0,2.932,1.465,2.2,3.297c-0.733,1.83-7.695,14.648-9.526,17.215
				c-1.831,2.564-8.789-2.93-7.326-5.496C38.353,79.078,49.342,65.16,51.538,66.625z"/>
			<path fill="#868D36" d="M36.886,88.234c0,0,5.495,1.467,4.763,4.396c-0.731,2.93-2.563,7.326-4.029,8.424
				c-1.465,1.1-8.791,0-9.891-1.465C26.63,98.125,34.323,87.502,36.886,88.234z"/>
			<path fill="#868D36" d="M35.788,105.451c0,0,2.198,9.891,1.832,12.453c-0.365,2.564-12.821,9.526-12.821,7.327
				c0-2.197,0.49-19.413,3.42-20.147C31.148,104.354,35.788,105.451,35.788,105.451z"/>
			<path fill="#868D36" d="M165.212,36.71c8.787-1.122,15.412,2.188,18.043,3.804c7.614-0.887,18.796-14.909,25.552-17.333
				c7.083-2.543,14.298-9.641,24.754-8.166c9.422,1.327,17.424-2.095,21.084,2.686c-4.733-0.579-5.693,1.903-20.526,2.962
				c-15.641,1.116-30.166,19.741-33.89,22.349c-3.166,2.214-11.15,3.35-13.482,3.644c-0.727-0.961-6.824,2.412-8.591,1.289
				c-2.687-1.712-12.21-6.106-14.897-7.571C160.575,38.906,165.212,36.71,165.212,36.71z"/>
			<path fill="#868D36" d="M4.339,138.987c0,0,1.254,0.18-0.848-0.559c-2.104-0.734-0.243-1.941-0.243-1.941
				c7.532-3.699,16.455-4.727,21.787-5c0.165-0.639,0.334-1.166,0.497-1.492c1.098-2.199,10.256-5.494,10.256-5.494
				s2.198,1.83-1.465,7.326c-2.562,3.84-4.227,9.104-5.999,11.428c-0.082,1.52-0.141,3.043-0.184,4.523
				c0.437-0.115,0.928,0.154,1.42,1.264c1.467,3.296,5.13,12.453,3.663,16.115c-1.463,3.664-7.326,9.89-7.691,6.595
				c-0.261-2.354-1.075-10.859-0.458-16.737c-0.5-0.055-0.934-0.062-1.171-0.121c-0.907-0.223-5.872,2.688-8.606,0.955
				c-2.733-1.736-7.301,0.9-12.168-6.913C-1.74,141.126,4.339,138.987,4.339,138.987z"/>
			<path fill="#868D36" d="M76.399,7.863c54.616-16.133,83.156,8.07,89.153,14.071c2.39,2.391,2.631,5.733,2.071,8.896
				c-1.256,0.004-2.529,0.085-3.785,0.244l-0.451,0.057l-0.412,0.198c-0.077,0.034-0.168,0.086-0.25,0.126
				c-1.161-1.714-5.259-3.644-22.871-4.926c-7.607-0.555-11.813,0.379-13.48,3.037c-0.15-0.51-0.422-0.991-0.81-1.394
				c-0.86-1.03-3.268-2.953-9.213-2.953c-2.646,0-5.756,0.379-9.247,1.127l-0.308,0.082c-0.279,0.095-2.085,0.762-3.49,2.261
				l-0.038-0.035l-0.314-0.187c-0.596-0.351-1.292-0.522-2.128-0.522c-3.477,0-13.246,3.767-15.6,6.014
				c-0.699,0.667-1.175,1.488-1.492,2.36c-5.641-3.978-24.671-3.62-26.209-11.379C55.834,16.431,76.399,7.863,76.399,7.863z"/>
		</g>
	</g>
	<g>
		<path fill="#5C584A" d="M193.311,61.082l0.925,2.047l-4.774,17.51l-35.53,5.877l-15.033-9.881
			c19.979-14.221,34.341-22.855,38.969-25.525L193.311,61.082z"/>
		<path fill="#5C584A" d="M81.087,124.257l8.743,14.762L73.799,180.68l-24.824-0.504l-2.599-1.264l-8.392-12.289
			C37.984,166.624,67.033,136.874,81.087,124.257z"/>
		<polygon fill="#5C584A" points="191.045,86.082 210.37,100.297 211.64,103.127 202.021,151.273 200.058,153.215 171.385,159.323 
			145.384,126.198 156.985,96.281 		"/>
		<polygon fill="#5C584A" points="135.617,137.187 165.678,164.478 157.27,195.118 154.898,197.459 97.812,201.797 94.763,200.323 
			80.177,182.608 100.818,143.292 		"/>
		<path fill="#5C584A" d="M35.788,169.92c1.747-2.794,8.792,9.889,7.692,12.088c-1.1,2.197-5.514,2.566-13.573-1.828
			C21.919,175.821,33.957,172.85,35.788,169.92z"/>
		<path fill="#5C584A" d="M45.546,183.538c0,0,17.292-2.039,24.945,0.471c3.393,1.113-1.554,14.85-6.133,14.85
			C56.305,198.858,40.979,191.538,45.546,183.538z"/>
		<path fill="#49463B" d="M135.093,202.989c0,0-3.409-0.07-3.702,1.711c-0.29,1.781-2.862,3.406,1.409,3.674
			c4.271,0.268,12.992-0.906,16.155-3.277c1.894-1.42,4.385-4.445,2.003-4.074C148.575,201.395,135.093,202.989,135.093,202.989z"/>
		<path fill="#5C584A" d="M159.841,195.194c0,0,3.418,2.688,7.081,1.713c3.663-0.979,18.072-11.236,16.607-15.631
			c-1.465-4.396-10.744-15.384-13.92-13.919C166.436,168.821,159.841,193.975,159.841,195.194z"/>
		<path fill="#5C584A" d="M182.064,161.251c-3.663,0.734-10.013,1.225-5.861,6.352c4.151,5.128,11.721,13.673,17.827,8.791
			c6.104-4.885,13.432-20.756,10.746-20.756C202.089,155.637,182.064,161.251,182.064,161.251z"/>
		<path fill="#49463B" d="M205.996,150.021c0,0,3.663,1.71,6.349-3.908c2.687-5.615,7.814-24.664,5.616-24.91
			c-2.196-0.244-6.836-3.417-8.791,9.281C207.215,143.181,205.996,150.021,205.996,150.021z"/>
	</g>
	<g>
		<g>
			<path fill="#5C584A" d="M221.801,112.932c-0.217,1.748-0.907,3.006-2.374,3.145c-5.13,0.486-4.64-2.197-4.64-2.197
				c-0.295-3.84-0.07-7.271,0.427-9.867C215.591,108.09,219.204,112.023,221.801,112.932z"/>
			<path fill="#49463B" d="M254.645,17.7L225.82,41.38l-15.567,26.556c0,0-0.458,8.699-11.905,14.652
				c0,0,29.762-14.652,37.088-27.473c7.326-12.82,13.736-20.146,13.736-20.146L254.645,17.7z"/>
			<path fill="#5C584A" d="M225.659,60.609c-0.498,0.639-5.953,8.242-11.791,11.676l-5.037,3.664
				c-3.663,2.975-10.27,5.447-12.359,7.16c-2.687,2.199,9.766,9.277,13.918,11.721c0.265,0.156,0.522,0.273,0.771,0.363
				c2.481,1.859,3.734,3.889,4.01,8.568c0.005,0.084,0.034,0.164,0.042,0.25c0.376,4.078,3.989,8.012,6.586,8.92
				c0.281,0.098,0.562,0.191,0.812,0.215c5.037,0.459,2.191,6.381,2.976,7.098c3.994,3.653-2.624,27.976-4.223,32.324
				c-1.599,4.349-2.702,22.18-5.812,26.592c-3.112,4.412-7.812,16.898-4.84,32.303c2.974,15.406,13.629,9.984,20.25,2.014
				c6.621-7.969,8.113,3.613,22.987-36.988c14.872-40.599,3.108-66.731,0.415-72.2c-2.697-5.469-20.835-6.002-25.473-4.867
				c-4.505,1.098-11.772-8.121-12.192-8.66c-0.124-0.488-0.53-2.068-1.082-4.031l0.165-0.215c0,0-1.893-3.248,5.031-9.285
				c6.921-6.035,27.288-22.929,31.04-38.797c2.154-9.105,6.502-15.206,3.064-20.39c-0.084-0.129-0.185-0.226-0.273-0.344
				c-4.733-0.579-5.693,1.903-20.526,2.962c-15.641,1.116-30.166,19.741-33.89,22.349c-3.166,2.214-11.15,3.35-13.482,3.644
				c-4.128,2.395-3.949,4.464-3.949,4.464s5.126,1.222,9.034,5.128c1.66,1.66,2.964,2.342,3.992,2.344c0,0,1.776-1.469,5.225-2.787
				c2.595-0.993,3.434-1.374,3.434-1.374s4.996-0.721-0.458,2.29c-2.212,1.221-5.266,2.918-6.067,4.521
				c-0.229,0.572-0.229,0.686-0.515,1.258c-1.234,2.471-2.436,12.062-2.924,15.238c-0.488,3.174,7.081-1.465,11.966-4.152
				c0.295-0.16,0.56-0.326,0.803-0.488c0,0,4.407-2.756,10.703-6.877c6.295-4.121,7.707-9.463,8.165-9.807
				c0,0,1.445-4.954,3.963-8.312c0,0,5.648-3.205,7.097-5.953c1.449-2.747,1.145-6.944,4.35-9.921s10.76-9.921,12.515-13.507
				c0,0,0.075,1.22-3.74,6.41c-3.814,5.19-6.868,6.486-7.555,8.318c-0.687,1.831,0.54,9.306-4.648,13.885
				c-2.924,2.581-6.639,3.663-7.555,4.578C229.666,52.826,227.916,57.707,225.659,60.609z"/>
		</g>
		<path fill="#5C584A" d="M70.658,211.897c1.86-3.787,5.083-7.955,6.137-9.275c-1.74-0.51-3.096-0.994-3.643-1.32
			c-2.236-1.336,0.733-7.572,2.014-12.15c1.163-4.148,4.003-1.969,4.003-1.969s4.031,3.477,8.792,8.141
			c4.438,4.35,5.155,6.506,4.305,8.562c3.579,0.219,7.503,0.314,11.443,0.162c1.508-0.152,3.462-0.289,5.609-0.408
			c0.277-0.029,0.555-0.059,0.828-0.092c0,0-0.023,0.035-0.032,0.051c7.451-0.393,16.721-0.588,17.492-0.588
			c1.222,0,1.955,3.174-0.243,5.859c-1.445,1.77-12.304,1.104-20.257,0.096c-1.948,3.941-4.176,9.521-4.55,15.029
			c-0.683,10.082-4.146,12.148-4.146,12.148s-9.59,10.629-10.837,9.104c-1.247-1.527-6.426-2.873-10.762-1.641
			c-4.332,1.234-1.917-6.668-7.101-9.143c-5.183-2.477-1.152-9.861-3.395-13.619C64.069,217.086,68.412,216.461,70.658,211.897z"/>
	</g>
</g>
<path fill="#49463B" d="M249.737,111.74c0,0-5.494,3.662,0,23.81s-16.483,63.187-20.146,72.343
	c-3.663,9.158,9.157-0.916,13.736-11.904C247.905,185,271.714,133.718,249.737,111.74z"/>
<path fill="#49463B" d="M101.46,214.915c0,0-2.06,6.41-2.518,12.133c-0.662,8.268-5.266,8.699-8.013,13.279
	c-2.748,4.578-10.302-2.52-10.302-2.52c10.073-7.326,6.41-18.314,9.157-22.893c2.748-4.58,12.592-4.35,12.592-4.35L101.46,214.915z"
	/>
</svg>
